<?xml version="1.0" encoding="utf-8"?>
<!-- Generator: Adobe Illustrator 16.0.0, SVG Export Plug-In . SVG Version: 6.00 Build 0)  -->
<!DOCTYPE svg PUBLIC "-//W3C//DTD SVG 1.1//EN" "http://www.w3.org/Graphics/SVG/1.1/DTD/svg11.dtd">
<svg version="1.1" id="Layer_1" xmlns="http://www.w3.org/2000/svg" xmlns:xlink="http://www.w3.org/1999/xlink" x="0px" y="0px"
	 width="831.946px" height="512px" viewBox="28.554 12.481 831.946 512" enable-background="new 28.554 12.481 831.946 512"
	 xml:space="preserve">
<g id="_x31_90">
</g>
<g>
	<path fill="#32BAAE" d="M104.78,179.48c-0.058,0-0.115-0.002-0.172-0.008c-1.521-0.14-2.578-1.996-3.696-3.963
		c-0.86-1.512-1.834-3.225-2.779-3.4c-0.998-0.188-2.453,1.031-3.872,2.192c-1.518,1.242-2.952,2.416-4.263,2.416
		c-0.189,0-0.372-0.024-0.545-0.073c-1.463-0.418-2.158-2.435-2.894-4.568c-0.568-1.65-1.213-3.521-2.114-3.871
		c-0.86-0.333-2.59,0.559-4.195,1.434c-1.532,0.836-2.98,1.626-4.194,1.626c-0.362,0-0.69-0.073-0.976-0.215
		c-1.356-0.68-1.668-2.786-1.998-5.017c-0.256-1.73-0.546-3.692-1.372-4.207c-0.745-0.463-2.627,0.064-4.377,0.634
		c-1.33,0.433-2.704,0.878-3.805,0.878c-0.643,0-1.147-0.146-1.543-0.447c-1.206-0.916-1.127-3.041-1.044-5.289
		c0.064-1.752,0.138-3.736-0.583-4.396c-0.312-0.286-0.878-0.426-1.731-0.426c-0.801,0-1.757,0.125-2.682,0.246
		c-0.957,0.125-1.946,0.252-2.811,0.252c-1.224,0-2.028-0.258-2.532-0.812c-1.016-1.119-0.553-3.19-0.062-5.384
		c0.383-1.713,0.817-3.654,0.226-4.438c-0.587-0.779-2.56-0.889-4.3-0.984c-2.241-0.124-4.358-0.241-5.157-1.533
		c-0.793-1.285,0.04-3.234,0.921-5.298c0.69-1.615,1.472-3.445,1.034-4.328c-0.433-0.871-2.348-1.343-4.038-1.757
		c-2.184-0.537-4.247-1.045-4.795-2.467c-0.543-1.404,0.632-3.164,1.877-5.026c0.977-1.462,2.083-3.119,1.814-4.071
		c-0.265-0.932-2.056-1.749-3.637-2.47c-2.05-0.935-3.987-1.818-4.265-3.321c-0.273-1.476,1.202-2.984,2.763-4.58
		c1.231-1.259,2.626-2.686,2.537-3.678c-0.087-0.959-1.696-2.09-3.115-3.088c-1.848-1.299-3.594-2.526-3.594-4.061
		c0-1.535,1.745-2.763,3.593-4.062c1.419-0.998,3.027-2.128,3.115-3.089c0.091-0.992-1.305-2.418-2.537-3.677
		c-1.562-1.598-3.038-3.104-2.764-4.582c0.278-1.502,2.215-2.385,4.266-3.32c1.581-0.721,3.373-1.538,3.637-2.471
		c0.269-0.952-0.837-2.608-1.813-4.069c-1.245-1.863-2.419-3.622-1.876-5.028c0.548-1.421,2.61-1.928,4.793-2.465
		c1.69-0.416,3.606-0.888,4.04-1.759c0.438-0.882-0.344-2.712-1.034-4.327c-0.881-2.064-1.714-4.014-0.921-5.298
		c0.798-1.292,2.915-1.41,5.157-1.534c1.741-0.096,3.713-0.206,4.299-0.984c0.592-0.785,0.158-2.726-0.225-4.439
		c-0.49-2.193-0.953-4.264,0.063-5.383c0.503-0.554,1.308-0.812,2.531-0.812c0.865,0,1.854,0.129,2.811,0.253
		c0.925,0.121,1.881,0.245,2.682,0.245c0.853,0,1.419-0.139,1.73-0.425c0.722-0.66,0.649-2.646,0.585-4.398
		c-0.083-2.249-0.161-4.373,1.044-5.288c0.396-0.301,0.901-0.447,1.543-0.447c1.102,0,2.477,0.446,3.807,0.878
		c1.75,0.569,3.634,1.096,4.379,0.634c0.824-0.514,1.114-2.475,1.37-4.205c0.33-2.23,0.641-4.338,1.998-5.018
		c0.286-0.143,0.614-0.215,0.976-0.215c1.214,0,2.661,0.79,4.193,1.626c1.604,0.875,3.333,1.766,4.194,1.434
		c0.902-0.351,1.547-2.221,2.115-3.872c0.736-2.134,1.431-4.15,2.894-4.567c0.173-0.049,0.356-0.074,0.545-0.074
		c1.311,0,2.745,1.174,4.263,2.417c1.418,1.162,2.872,2.378,3.87,2.193c0.945-0.176,1.92-1.89,2.781-3.402
		c1.118-1.965,2.174-3.822,3.695-3.962c1.479-0.125,2.848,1.476,4.286,3.182c1.136,1.349,2.423,2.876,3.417,2.876
		s2.281-1.528,3.418-2.876c1.438-1.708,2.796-3.322,4.287-3.182c1.521,0.14,2.577,1.997,3.695,3.963
		c0.86,1.512,1.835,3.226,2.779,3.401c0.994,0.191,2.453-1.031,3.872-2.193c1.518-1.243,2.952-2.416,4.263-2.416
		c0.189,0,0.373,0.025,0.545,0.074c1.463,0.417,2.158,2.434,2.894,4.568c0.569,1.65,1.213,3.52,2.115,3.871
		c0.861,0.336,2.59-0.558,4.194-1.434c1.532-0.836,2.979-1.626,4.194-1.626c0.362,0,0.69,0.073,0.976,0.215
		c1.356,0.68,1.668,2.787,1.998,5.018c0.255,1.73,0.545,3.691,1.37,4.206c0.744,0.464,2.627-0.065,4.378-0.634
		c1.329-0.432,2.704-0.878,3.805-0.878c0.642,0,1.146,0.146,1.542,0.446c1.205,0.916,1.127,3.04,1.045,5.289
		c-0.064,1.752-0.137,3.738,0.584,4.398c0.312,0.286,0.878,0.425,1.731,0.425c0.8,0,1.756-0.125,2.681-0.245
		c0.957-0.125,1.945-0.253,2.811-0.253c1.224,0,2.029,0.258,2.532,0.812c1.017,1.12,0.554,3.192,0.063,5.387
		c-0.382,1.712-0.816,3.652-0.226,4.436c0.587,0.779,2.56,0.888,4.3,0.985c2.241,0.124,4.357,0.241,5.157,1.534
		c0.793,1.284-0.04,3.233-0.921,5.297c-0.69,1.615-1.473,3.445-1.034,4.328c0.435,0.871,2.349,1.342,4.039,1.758
		c2.183,0.537,4.245,1.044,4.793,2.466c0.543,1.405-0.632,3.164-1.876,5.027c-0.977,1.461-2.083,3.117-1.812,4.07
		c0.264,0.932,2.055,1.748,3.635,2.47c2.051,0.935,3.987,1.817,4.266,3.321c0.273,1.476-1.202,2.982-2.764,4.58
		c-1.232,1.258-2.629,2.685-2.537,3.677c0.087,0.959,1.695,2.091,3.115,3.088c1.849,1.299,3.594,2.526,3.594,4.062
		c-0.002,1.535-1.747,2.763-3.596,4.062c-1.418,0.998-3.027,2.128-3.115,3.088c-0.09,0.992,1.306,2.419,2.537,3.677
		c1.562,1.596,3.037,3.104,2.766,4.579c-0.278,1.505-2.215,2.388-4.266,3.322c-1.582,0.721-3.375,1.539-3.638,2.471
		c-0.271,0.954,0.837,2.61,1.813,4.071c1.244,1.861,2.421,3.621,1.878,5.025c-0.55,1.422-2.611,1.93-4.794,2.467
		c-1.69,0.416-3.605,0.887-4.038,1.758c-0.438,0.883,0.343,2.713,1.032,4.328c0.881,2.064,1.713,4.014,0.92,5.298
		c-0.797,1.292-2.916,1.41-5.156,1.534c-1.74,0.096-3.713,0.205-4.3,0.984c-0.591,0.783-0.158,2.725,0.225,4.437
		c0.49,2.194,0.953,4.269-0.065,5.387c-0.503,0.554-1.307,0.812-2.53,0.812c-0.865,0-1.854-0.129-2.811-0.252
		c-0.925-0.121-1.882-0.246-2.683-0.246c-0.853,0-1.419,0.14-1.731,0.425c-0.72,0.659-0.647,2.644-0.583,4.396
		c0.083,2.25,0.16,4.377-1.047,5.293c-0.396,0.299-0.9,0.445-1.542,0.445c-1.101,0-2.476-0.445-3.806-0.878
		c-1.75-0.569-3.63-1.099-4.377-0.634c-0.825,0.514-1.114,2.475-1.37,4.205c-0.33,2.229-0.641,4.337-1.998,5.017
		c-0.285,0.144-0.613,0.215-0.976,0.215c-1.213,0-2.66-0.79-4.192-1.626c-1.606-0.876-3.335-1.769-4.196-1.434
		c-0.901,0.351-1.546,2.221-2.115,3.871c-0.736,2.135-1.431,4.15-2.894,4.568c-0.173,0.049-0.356,0.074-0.545,0.074
		c-1.312,0-2.746-1.174-4.263-2.417c-1.418-1.162-2.873-2.385-3.869-2.192c-0.946,0.176-1.921,1.891-2.781,3.403
		c-1.118,1.964-2.173,3.82-3.693,3.96c-1.475,0.141-2.847-1.476-4.286-3.182c-1.136-1.35-2.423-2.876-3.417-2.876
		s-2.281,1.528-3.417,2.876C107.511,177.93,106.205,179.48,104.78,179.48L104.78,179.48z M112.309,172.414
		c1.458,0,2.781,1.569,4.182,3.231c1.119,1.329,2.388,2.834,3.348,2.834l0.081-0.004c1.001-0.092,2.018-1.881,2.916-3.459
		c1.062-1.867,2.065-3.631,3.467-3.893c1.403-0.258,3.007,1.027,4.686,2.402c1.448,1.187,2.989,2.42,3.9,2.155
		c0.962-0.274,1.632-2.218,2.223-3.933c0.702-2.036,1.365-3.958,2.697-4.477c0.247-0.097,0.524-0.146,0.822-0.146
		c1.223,0,2.677,0.793,4.216,1.633c1.648,0.899,3.416,1.804,4.241,1.396c0.892-0.447,1.191-2.478,1.457-4.27
		c0.315-2.133,0.613-4.148,1.83-4.906c0.376-0.234,0.835-0.349,1.403-0.349c1.104,0,2.481,0.447,3.812,0.88
		c1.81,0.588,3.731,1.121,4.435,0.586c0.793-0.602,0.718-2.65,0.652-4.459c-0.079-2.158-0.154-4.197,0.907-5.168
		c0.512-0.469,1.277-0.688,2.406-0.688c0.865,0,1.854,0.13,2.812,0.254c0.925,0.121,1.882,0.244,2.682,0.244
		c0.909,0,1.494-0.158,1.79-0.483c0.668-0.735,0.223-2.733-0.171-4.497c-0.471-2.109-0.916-4.104-0.047-5.256
		c0.867-1.15,2.896-1.264,5.043-1.381c1.798-0.1,3.837-0.213,4.361-1.061c0.521-0.844-0.281-2.723-0.988-4.381
		c-0.851-1.99-1.652-3.869-1.008-5.166c0.637-1.287,2.607-1.771,4.693-2.283c1.752-0.432,3.738-0.92,4.1-1.854
		c0.355-0.921-0.777-2.616-1.775-4.111c-1.203-1.801-2.34-3.501-1.945-4.899c0.389-1.377,2.232-2.219,4.184-3.107
		c1.647-0.751,3.516-1.604,3.698-2.594c0.179-0.965-1.243-2.417-2.495-3.698c-1.519-1.551-2.951-3.017-2.82-4.468
		c0.131-1.421,1.785-2.584,3.537-3.814c1.485-1.045,3.17-2.229,3.17-3.244c0-1.015-1.685-2.197-3.17-3.242
		c-1.752-1.232-3.406-2.396-3.535-3.816c-0.133-1.452,1.301-2.917,2.818-4.468c1.252-1.281,2.674-2.733,2.494-3.698
		c-0.183-0.992-2.05-1.843-3.695-2.594c-1.951-0.889-3.795-1.729-4.184-3.107c-0.395-1.396,0.741-3.098,1.943-4.898
		c1-1.496,2.132-3.19,1.775-4.111c-0.359-0.936-2.347-1.424-4.099-1.855c-2.085-0.513-4.056-0.998-4.694-2.284
		c-0.645-1.296,0.158-3.176,1.008-5.166c0.709-1.658,1.512-3.537,0.992-4.379c-0.525-0.848-2.563-0.961-4.363-1.061
		c-2.147-0.119-4.176-0.231-5.043-1.381c-0.868-1.153-0.422-3.146,0.049-5.255c0.394-1.763,0.84-3.761,0.172-4.496
		c-0.296-0.326-0.882-0.485-1.792-0.485c-0.8,0-1.757,0.124-2.682,0.245c-0.956,0.124-1.945,0.253-2.81,0.253
		c-1.13,0-1.895-0.219-2.406-0.688c-1.063-0.972-0.988-3.013-0.909-5.172c0.066-1.807,0.142-3.854-0.65-4.456
		c-0.701-0.533-2.625,0-4.434,0.587c-1.332,0.432-2.708,0.879-3.812,0.879c-0.568,0-1.027-0.114-1.403-0.348
		c-1.217-0.759-1.515-2.774-1.83-4.908c-0.265-1.792-0.565-3.823-1.457-4.27c-0.824-0.417-2.594,0.495-4.243,1.395
		c-1.539,0.84-2.992,1.633-4.215,1.633c-0.298,0-0.574-0.049-0.821-0.145c-1.333-0.519-1.996-2.441-2.697-4.477
		c-0.591-1.714-1.261-3.658-2.223-3.932c-0.917-0.266-2.451,0.967-3.9,2.154c-1.68,1.375-3.289,2.661-4.689,2.402
		c-1.4-0.261-2.403-2.024-3.465-3.891c-0.898-1.579-1.917-3.369-2.918-3.461c-0.001,0-0.002,0-0.004,0
		c-1.04,0-2.308,1.503-3.427,2.831c-1.401,1.662-2.725,3.232-4.183,3.232s-2.781-1.57-4.181-3.232
		c-1.12-1.329-2.388-2.834-3.348-2.834c-1.083,0.096-2.101,1.885-2.999,3.464c-1.062,1.866-2.065,3.629-3.466,3.891
		c-1.399,0.261-3.008-1.027-4.687-2.402c-1.448-1.185-2.988-2.413-3.901-2.154c-0.962,0.274-1.631,2.217-2.222,3.931
		c-0.702,2.036-1.364,3.958-2.698,4.478c-0.247,0.096-0.523,0.145-0.821,0.145c-1.224,0-2.677-0.793-4.215-1.633
		c-1.648-0.899-3.415-1.809-4.242-1.394c-0.892,0.446-1.192,2.479-1.457,4.269c-0.315,2.134-0.613,4.149-1.831,4.908
		c-0.376,0.234-0.835,0.348-1.403,0.348c-1.104,0-2.481-0.447-3.813-0.88c-1.811-0.588-3.733-1.122-4.437-0.586
		c-0.791,0.601-0.716,2.648-0.649,4.455c0.079,2.16,0.154,4.201-0.909,5.173c-0.511,0.468-1.275,0.687-2.406,0.687
		c-0.865,0-1.854-0.129-2.811-0.253c-0.925-0.12-1.882-0.245-2.682-0.245c-0.909,0-1.495,0.158-1.791,0.484
		c-0.667,0.734-0.221,2.731,0.173,4.493c0.472,2.111,0.917,4.105,0.048,5.258c-0.866,1.15-2.895,1.262-5.042,1.381
		c-1.799,0.1-3.838,0.212-4.362,1.061c-0.521,0.843,0.282,2.722,0.991,4.38c0.85,1.99,1.653,3.87,1.009,5.166
		c-0.64,1.286-2.61,1.771-4.696,2.284c-1.753,0.431-3.739,0.92-4.1,1.855c-0.356,0.921,0.776,2.617,1.775,4.112
		c1.203,1.8,2.338,3.501,1.943,4.898c-0.39,1.377-2.232,2.219-4.184,3.107c-1.647,0.751-3.514,1.602-3.697,2.593
		c-0.179,0.966,1.242,2.418,2.496,3.7c1.517,1.55,2.95,3.015,2.818,4.467c-0.129,1.421-1.784,2.584-3.536,3.816
		c-1.485,1.043-3.168,2.228-3.168,3.242c0,1.016,1.684,2.199,3.169,3.243c1.752,1.231,3.407,2.396,3.536,3.816
		c0.131,1.452-1.301,2.917-2.818,4.468c-1.253,1.281-2.674,2.732-2.495,3.699c0.183,0.992,2.05,1.843,3.697,2.594
		c1.951,0.889,3.793,1.729,4.184,3.105c0.395,1.398-0.742,3.1-1.945,4.9c-1,1.495-2.132,3.19-1.776,4.111
		c0.361,0.936,2.348,1.424,4.101,1.855c2.086,0.513,4.056,0.998,4.695,2.283c0.644,1.297-0.159,3.176-1.009,5.165
		c-0.708,1.658-1.511,3.537-0.991,4.38c0.524,0.848,2.563,0.959,4.362,1.06c2.148,0.118,4.177,0.231,5.044,1.381
		c0.869,1.153,0.423,3.147-0.049,5.257c-0.394,1.762-0.84,3.76-0.173,4.495c0.296,0.326,0.882,0.483,1.792,0.483
		c0.8,0,1.757-0.125,2.682-0.244c0.957-0.125,1.946-0.254,2.811-0.254c1.13,0,1.895,0.22,2.407,0.688
		c1.062,0.974,0.986,3.013,0.907,5.171c-0.067,1.807-0.143,3.854,0.649,4.457c0.705,0.534,2.625,0.002,4.435-0.586
		c1.332-0.432,2.708-0.879,3.812-0.879c0.568,0,1.027,0.114,1.403,0.348c1.219,0.76,1.518,2.775,1.833,4.91
		c0.265,1.792,0.565,3.822,1.457,4.268c0.824,0.416,2.594-0.493,4.243-1.395c1.539-0.84,2.992-1.633,4.215-1.633
		c0.298,0,0.575,0.049,0.822,0.145c1.333,0.52,1.995,2.441,2.697,4.478c0.591,1.715,1.26,3.658,2.222,3.933
		c0.913,0.264,2.45-0.967,3.9-2.154c1.68-1.375,3.289-2.662,4.689-2.402c1.4,0.262,2.403,2.023,3.465,3.891
		c0.898,1.579,1.916,3.369,2.918,3.461c0.001,0,0.002,0,0.003,0c1.04,0,2.307-1.502,3.426-2.83
		C109.529,173.984,110.851,172.414,112.309,172.414z"/>
</g>
<g>
	<path fill="#32BAAE" d="M46.706,219.467c-0.208,0-0.408-0.063-0.558-0.179c-0.058-0.045-5.829-4.459-7.683-5.46
		c-1.966-1.062-8.934-7.577-9.721-8.316c-0.286-0.269-0.243-0.668,0.096-0.896c0.338-0.227,0.844-0.192,1.13,0.076
		c2.102,1.972,7.889,7.27,9.4,8.086c1.615,0.873,5.741,3.965,7.296,5.143c0.948-0.811,2.958-2.467,5.056-3.792
		c0.462-0.292,1.104-0.838,1.846-1.472c1.161-0.99,2.607-2.223,4.248-3.237c3.031-1.875,5.253-4.415,5.275-4.44
		c0.252-0.289,0.75-0.361,1.115-0.164c0.365,0.199,0.458,0.594,0.207,0.883c-0.095,0.111-2.379,2.723-5.61,4.722
		c-1.54,0.954-2.938,2.144-4.06,3.101c-0.787,0.67-1.465,1.25-2.021,1.601c-2.717,1.717-5.389,4.104-5.416,4.129
		c-0.145,0.13-0.351,0.208-0.57,0.215C46.727,219.466,46.717,219.467,46.706,219.467z"/>
</g>
<polygon fill="#32BAAE" points="31.564,241.595 28.567,239.068 31.564,236.54 34.567,239.068 "/>
<g opacity="0.4">
	<path fill="#808284" d="M225.681,12.484c2.279,0,4.439,0.12,6.72,0.48c-1.681,6-2.04,12.479-1.8,17.879
		c-2.641,0.24-7.2,0.12-9.961,0C221,22.923,221.601,19.323,225.681,12.484z M241.52,12.484c2.279,0,4.438,0.12,6.72,0.48
		c-1.681,6-2.04,12.479-1.802,17.879c-2.639,0.24-7.198,0.12-9.959,0C236.838,22.923,237.439,19.323,241.52,12.484z"/>
</g>
<g opacity="0.4">
	<path fill="#808284" d="M227.345,63.109c-2.279,0-4.439-0.12-6.72-0.48c1.681-6,2.04-12.479,1.8-17.879
		c2.641-0.24,7.199-0.12,9.961,0C232.024,52.669,231.425,56.269,227.345,63.109z M243.185,63.109c-2.279,0-4.439-0.12-6.721-0.48
		c1.682-6,2.041-12.479,1.801-17.879c2.641-0.24,7.199-0.12,9.959,0C247.864,52.669,247.265,56.269,243.185,63.109z"/>
</g>
<path id="location-2-icon" fill="#FFFFFF" d="M104.567,208.176c4.589,0,8.322,3.744,8.322,8.347c0,5.312-5.521,13.981-8.322,18.711
	c-4.74-8.006-8.322-14.123-8.322-18.711C96.246,211.92,99.979,208.176,104.567,208.176 M104.567,204.486c-6.627,0-12,5.39-12,12.037
	s5.252,14.373,12,25.963c6.748-11.59,12-19.315,12-25.963S111.196,204.486,104.567,204.486L104.567,204.486z M104.567,212.228
	c-2.306,0-4.174,1.875-4.174,4.188c0,2.313,1.869,4.188,4.174,4.188c2.305,0,4.175-1.875,4.175-4.188
	C108.743,214.103,106.874,212.228,104.567,212.228L104.567,212.228z"/>
<path id="phone-2-icon" fill="#FFFFFF" d="M173.154,238.445L173.154,238.445c-1.883,0-3.788-0.881-5.665-2.619
	c-2.201-2.037-4.496-5.379-6.82-9.932c-3.291-6.447-4.567-11.23-3.901-14.625c0.71-3.623,3.002-4.541,7.914-6.824l5.699,11.162
	l-3.807,1.879c-0.169,0.473,0.03,2.28,1.295,4.787c1.291,2.562,2.667,3.84,3.163,3.993c0.223-0.108,3.804-1.864,3.804-1.864
	l5.761,11.152C176.004,237.814,175.039,238.445,173.154,238.445z M159.655,211.816c-0.364,1.861-0.029,5.588,3.643,12.779
	c2.169,4.249,4.257,7.319,6.207,9.124c1.313,1.216,2.541,1.833,3.648,1.833c0.946,0,1.624-0.369,3.48-1.281l-3.098-5.998
	c-1.002,0.492-1.238,0.606-1.312,0.642c-2.152,1.032-4.286-1.103-5.651-3.083c-1.194-1.732-2.194-3.87-2.674-5.719
	c-0.847-3.256,0.175-4.584,1.181-5.125l0.046-0.022l1.306-0.646l-3.073-6.02C161.238,209.348,160.057,209.765,159.655,211.816z"/>
<g>
	<path id="time-3-icon" fill="#FFFFFF" d="M236.503,204.57c-8.837,0-16,7.164-16,16s7.163,16,16,16c8.837,0,16-7.164,16-16
		S245.341,204.57,236.503,204.57z M236.503,233.075c-6.911,0-12.505-5.594-12.505-12.506c0-6.91,5.593-12.504,12.505-12.504
		c6.912,0,12.505,5.592,12.505,12.504S243.417,233.075,236.503,233.075z M246.354,221.33c0.133,0.022,0.229,0.138,0.229,0.272v0.008
		c0,0.134-0.096,0.248-0.227,0.271c-2.881,0.539-9.706,1.659-10.455,1.659c-1.073,0-1.942-0.87-1.942-1.942
		c0-0.764,1.149-8.13,1.68-11.113c0.021-0.119,0.125-0.207,0.247-0.207l0,0c0.133,0,0.246,0.097,0.267,0.229l1.471,9.312
		L246.354,221.33z"/>
</g>
<g id="facebook-icon">
	<path fill="#FFFFFF" d="M330.143,242.486h-9.688V224.7h-3.699v-8.634h3.699v-3.479c0-2.634,0.768-4.666,2.276-6.039
		c1.527-1.388,3.718-2.062,6.69-2.062h6.213v8.785h-5.137c-0.148,0-0.248,0.009-0.314,0.019c-0.02,0.105-0.041,0.303-0.041,0.66
		v2.116h5.611l-0.758,8.558h-4.854V242.486L330.143,242.486z M323.028,239.906h4.54v-17.862h5.074l0.301-3.4h-5.375v-4.695
		c0-0.891,0-3.258,2.932-3.258h2.561v-3.627h-3.639c-2.275,0-3.944,0.469-4.963,1.394c-0.963,0.876-1.432,2.227-1.432,4.128v6.058
		h-3.701v3.476h3.701L323.028,239.906L323.028,239.906z"/>
</g>
<path id="location-2-icon_1_" fill="#F6AF33" d="M136.629,208.176c4.589,0,8.322,3.744,8.322,8.347
	c0,5.312-5.521,13.981-8.322,18.711c-4.74-8.006-8.322-14.123-8.322-18.711C128.308,211.92,132.04,208.176,136.629,208.176
	 M136.629,204.486c-6.627,0-12,5.39-12,12.037s5.252,14.373,12,25.963c6.748-11.59,12-19.315,12-25.963
	S143.258,204.486,136.629,204.486L136.629,204.486z M136.629,212.228c-2.306,0-4.174,1.875-4.174,4.188
	c0,2.313,1.869,4.188,4.174,4.188c2.305,0,4.175-1.875,4.175-4.188C140.805,214.103,138.935,212.228,136.629,212.228
	L136.629,212.228z"/>
<path id="phone-2-icon_1_" fill="#F6AF33" d="M205.216,238.445L205.216,238.445c-1.883,0-3.788-0.881-5.665-2.619
	c-2.201-2.037-4.496-5.379-6.82-9.932c-3.291-6.447-4.567-11.23-3.901-14.625c0.71-3.623,3.002-4.541,7.914-6.824l5.699,11.162
	l-3.807,1.879c-0.169,0.473,0.03,2.28,1.295,4.787c1.291,2.562,2.667,3.84,3.163,3.993c0.223-0.108,3.804-1.864,3.804-1.864
	l5.761,11.152C208.066,237.814,207.101,238.445,205.216,238.445z M191.717,211.816c-0.364,1.861-0.029,5.588,3.643,12.779
	c2.169,4.249,4.257,7.319,6.207,9.124c1.313,1.216,2.541,1.833,3.648,1.833c0.946,0,1.624-0.369,3.48-1.281l-3.098-5.998
	c-1.002,0.492-1.238,0.606-1.312,0.642c-2.152,1.032-4.286-1.103-5.651-3.083c-1.194-1.732-2.194-3.87-2.674-5.719
	c-0.847-3.256,0.175-4.584,1.181-5.125l0.046-0.022l1.306-0.646l-3.073-6.02C193.3,209.348,192.119,209.765,191.717,211.816z"/>
<g>
	<path id="time-3-icon_1_" fill="#F6AF33" d="M268.564,204.57c-8.836,0-16,7.164-16,16s7.164,16,16,16c8.838,0,16-7.164,16-16
		S277.402,204.57,268.564,204.57z M268.564,233.075c-6.91,0-12.504-5.594-12.504-12.506c0-6.91,5.592-12.504,12.504-12.504
		s12.506,5.592,12.506,12.504S275.479,233.075,268.564,233.075z M278.414,221.33c0.133,0.022,0.229,0.138,0.229,0.272v0.008
		c0,0.134-0.097,0.248-0.228,0.271c-2.881,0.539-9.705,1.659-10.455,1.659c-1.071,0-1.94-0.87-1.94-1.942
		c0-0.764,1.147-8.13,1.681-11.113c0.021-0.119,0.125-0.207,0.246-0.207l0,0c0.133,0,0.245,0.097,0.268,0.229l1.471,9.312
		L278.414,221.33z"/>
</g>
<g id="facebook-icon_3_">
	<path fill="#F6AF33" d="M362.205,242.486h-9.689V224.7h-3.699v-8.634h3.699v-3.479c0-2.634,0.77-4.666,2.277-6.039
		c1.527-1.388,3.717-2.062,6.691-2.062h6.213v8.785h-5.137c-0.148,0-0.248,0.009-0.314,0.019c-0.02,0.105-0.041,0.303-0.041,0.66
		v2.116h5.611l-0.758,8.558h-4.854V242.486L362.205,242.486z M355.09,239.906h4.541v-17.862h5.074l0.301-3.4h-5.375v-4.695
		c0-0.891,0-3.258,2.93-3.258h2.562v-3.627h-3.641c-2.273,0-3.943,0.469-4.963,1.394c-0.963,0.876-1.432,2.227-1.432,4.128v6.058
		h-3.701v3.476h3.701v17.786H355.09z"/>
</g>
<g id="facebook-icon_1_">
	<path d="M39.142,298.303h-7.648V284.26h-2.921v-6.814h2.921v-2.746c0-2.08,0.605-3.686,1.798-4.77
		c1.206-1.094,2.934-1.627,5.282-1.627h4.905v6.936h-4.055c-0.116,0-0.196,0.008-0.248,0.016c-0.016,0.082-0.033,0.238-0.033,0.52
		v1.672h4.43l-0.598,6.756h-3.833V298.303z M33.524,296.266h3.586v-14.102h4.005l0.238-2.684H37.11v-3.707
		c0-0.703,0-2.572,2.312-2.572h2.024v-2.863h-2.874c-1.795,0-3.114,0.369-3.917,1.102c-0.761,0.691-1.131,1.758-1.131,3.26v4.781
		h-2.921v2.744h2.921V296.266z"/>
</g>
<g id="facebook-icon_2_">
	<path fill="#32BAAE" d="M103.138,298.303H95.49V284.26h-2.922v-6.814h2.921v-2.746c0-2.08,0.605-3.686,1.798-4.77
		c1.206-1.094,2.934-1.627,5.282-1.627h4.905v6.936h-4.055c-0.116,0-0.196,0.008-0.248,0.016c-0.016,0.082-0.033,0.238-0.033,0.52
		v1.672h4.43l-0.598,6.756h-3.833L103.138,298.303L103.138,298.303z M97.521,296.266h3.586v-14.102h4.005l0.238-2.684h-4.243v-3.707
		c0-0.703,0-2.572,2.312-2.572h2.024v-2.863h-2.874c-1.795,0-3.114,0.369-3.917,1.102c-0.761,0.691-1.131,1.758-1.131,3.26v4.781
		H94.6v2.744h2.921V296.266z"/>
</g>
<path id="email-4-icon" fill="#FFFFFF" d="M28.572,332.404v22.268h30v-22.268H28.572z M55.022,335.322l-11.48,9.488l-11.448-9.488
	H55.022z M55.654,351.754H31.491v-12.951l12.049,9.98l12.114-10.01V351.754z"/>
<path id="email-4-icon_1_" fill="#F6AF33" d="M92.567,332.404v22.268h30v-22.268H92.567z M119.018,335.322l-11.48,9.488
	l-11.448-9.488H119.018z M119.648,351.754H95.485v-12.951l12.049,9.98l12.114-10.01V351.754z"/>
<g>
	<path d="M188.958,275.897h-32.403v-7.416h32.403V275.897z M158.555,273.897h28.403v-3.416h-28.403V273.897z"/>
</g>
<g>
	<path d="M188.958,285.397h-32.403v-7.416h32.403V285.397z M158.555,283.397h28.403v-3.416h-28.403V283.397z"/>
</g>
<g>
	<path d="M188.958,294.897h-32.403v-7.416h32.403V294.897z M158.555,292.897h28.403v-3.416h-28.403V292.897z"/>
</g>
</svg>
