<?xml version="1.0" encoding="UTF-8" standalone="no"?>
<svg xmlns:svg="http://www.w3.org/2000/svg" xmlns="http://www.w3.org/2000/svg" width="212" height="212" version="1.1" >
<g transform="translate(-10.849616,-17.548134)">
<path id="path3036" d="m 108.14285,229.63019 c -3.95451,-1.09673 -4.76037,-2.52658 -4.11775,-7.3062 0.33522,-2.49329 0.72385,-5.38356 0.86362,-6.42282 0.21486,-1.59757 -1.21391,-2.26941 -9.245871,-4.34763 -13.55131,-3.50632 -13.03864,-3.58329 -14.90055,2.23719 -1.35681,4.24147 -2.01852,5.04818 -4.36187,5.31762 -1.51933,0.17469 -5.17334,-0.78613 -8.12001,-2.13516 -5.43771,-2.48947 -13.61757,-9.06446 -13.61757,-10.94583 0,-0.56686 1.63298,-3.02349 3.62885,-5.45918 l 3.62885,-4.42854 -7.87885,-7.91895 c -4.33337,-4.35542 -8.35307,-7.92142 -8.93268,-7.92445 -0.57961,-0.003 -2.58039,1.56949 -4.44617,3.49449 -1.86578,1.925 -4.11921,3.5 -5.00761,3.5 -4.82891,0 -16.11307,-17.89367 -14.49638,-22.98741 0.29906,-0.94227 2.93062,-2.41227 6.11578,-3.41631 6.37709,-2.0102 6.15607,-0.50124 2.32104,-15.84628 -2.42299,-9.69506 -2.57801,-9.80906 -10.38938,-7.64039 -3.55997,0.98836 -4.12942,0.88497 -5.68128,-1.0315 -3.5318404,-4.36164 -3.5433704,-20.87884 -0.0175,-25.04747 1.55827,-1.84233 1.99598,-1.87575 7.46591,-0.56997 4.37728,1.04494 5.91735,1.09753 6.24339,0.21321 0.75635,-2.0515 4.66326,-17.065431 5.16936,-19.865441 0.45586,-2.522 0.13348,-2.7942 -5.11708,-4.32057 -4.4134,-1.28301 -5.73204,-2.14083 -6.20839,-4.03876 -1.23203,-4.90879 9.25185,-22.44911 13.41787,-22.44911 0.88471,0 3.54596,1.90142 5.91389,4.22537 l 4.30534,4.22537 8.66527,-8.66527 8.66528,-8.66527 -4.18276,-4.53776 c -2.30052,-2.49576 -4.18276,-5.2 -4.18276,-6.00941 0,-4.06646 16.07404,-14.03921 21.59978,-13.40107 2.44677,0.28257 3.05254,1.02105 4.37054,5.32804 2.33844,7.64161 2.32694,7.63405 8.42604,5.53566 2.94466,-1.01312 7.87727,-2.36587 10.96135,-3.00612 3.084081,-0.64025 5.819661,-1.50752 6.079071,-1.92725 0.25941,-0.41974 -0.13614,-3.06719 -0.87899,-5.88323 -1.73121,-6.5627 -0.81506,-7.85426 6.62213,-9.33565 6.81649,-1.35776 15.97102,-0.41409 18.77441,1.93531 1.74033,1.45848 1.87944,2.21134 1.04978,5.68128 -1.85005,7.73756 -1.61,8.23242 4.62074,9.52592 3.09367,0.64224 8.01646,1.99055 10.93953,2.99623 5.90571,2.03186 6.76444,1.65196 7.97419,-3.52774 1.00422,-4.2997 3.2359,-7.49453 5.23448,-7.49362 5.26369,0.002 21.22695,10.336 21.22695,13.74097 0,0.84402 -1.85414,3.54608 -4.12031,6.00458 l -4.12031,4.47001 8.29189,8.33519 c 9.04585,9.09308 9.08615,9.10298 14.38582,3.53452 1.6154,-1.69734 3.48966,-3.08606 4.16501,-3.08606 3.41488,0 14.3979,16.68981 14.3979,21.87906 0,2.36309 -0.99139,3.08644 -7,5.1074 -3.44339,1.15816 -4.46475,1.98314 -4.34989,3.51354 0.21231,2.82889 4.55358,19.852671 5.28388,20.720131 0.33345,0.39607 2.99194,0.0908 5.90776,-0.67838 4.9045,-1.29379 5.44049,-1.25951 7.15779,0.45779 2.34308,2.34308 3.44325,9.49002 2.64156,17.16017 -0.87954,8.41491 -2.03519,10.22459 -5.98331,9.36945 -1.73679,-0.37618 -4.73279,-0.91731 -6.65779,-1.20251 l -3.5,-0.51855 -2.33775,9.34595 c -3.34356,13.36698 -3.38534,13.00983 1.69685,14.50215 8.40346,2.46758 8.94589,4.73557 3.59009,15.01077 -6.36927,12.21956 -9.60667,13.86098 -15.44919,7.83303 -1.86578,-1.925 -3.78449,-3.5 -4.26378,-3.5 -0.95366,0 -16.73622,15.6526 -16.73622,16.5984 0,0.32102 1.59294,2.44466 3.53986,4.7192 2.03346,2.37564 3.41651,4.98129 3.25,6.12296 -0.6608,4.53077 -19.24192,15.01114 -22.73058,12.8208 -0.7924,-0.4975 -2.14359,-3.12233 -3.00265,-5.83295 -1.84726,-5.82873 -1.91837,-5.83904 -15.79429,-2.29067 -10.19034,2.60588 -10.26735,2.70247 -8.17185,10.24957 0.94415,3.40041 0.83104,4.1356 -0.90306,5.8697 -1.61528,1.61528 -3.62176,2.04302 -10.83491,2.30976 -4.86889,0.18005 -9.75252,0.0778 -10.85252,-0.22731 z m 2.26719,-61.75497 c 0.2377,-23.03142 0.0826,-26.09297 -1.40499,-27.73675 -0.91969,-1.01626 -2.13436,-1.84774 -2.69926,-1.84774 -0.5649,0 -11.063511,5.7375 -23.330241,12.75 -14.31859,8.18548 -22.30844,13.3205 -22.31793,14.34357 -0.0209,2.2573 10.44388,12.69639 17.25701,17.2146 7.41684,4.91858 15.70269,8.56773 23.228221,10.22989 9.7806,2.16024 8.96468,4.35724 9.26719,-24.95357 z m 23.23281,24.85925 c 13.37017,-3.14034 29.26582,-12.82971 37.46742,-22.83867 3.01106,-3.67461 3.53823,-4.89333 2.60374,-6.01933 -1.56447,-1.88507 -43.28543,-25.58574 -45.0393,-25.58574 -0.75591,0 -2.19731,0.74474 -3.20312,1.65499 -1.68121,1.52147 -1.82874,3.72656 -1.82874,27.33333 0,14.12309 0.3,25.97835 0.66667,26.34501 0.93738,0.93738 1.97662,0.83833 9.33333,-0.88959 z M 77.142849,139.41469 c 29.591411,-17.1597 29.621661,-14.88184 -0.42725,-32.17085 -17.01552,-9.790101 -22.74304,-12.641711 -23.736,-11.817631 -4.72725,3.92327 -7.76791,29.572281 -5.02903,42.421621 1.87681,8.80501 4.19338,14.46097 5.89125,14.38365 0.71557,-0.0326 11.20103,-5.80014 23.30103,-12.81679 z m 106.487601,8.62604 c 2.94123,-6.66631 4.31548,-16.97353 3.75055,-28.13003 -0.54632,-10.78907 -3.77203,-23.312011 -6.24971,-24.262781 -1.28157,-0.49179 -40.15189,20.930201 -44.78416,24.681191 -1.44968,1.17388 -1.83294,2.31285 -1.38236,4.10811 0.49432,1.96952 5.13341,5.09306 22.40075,15.08258 11.97753,6.92926 22.36513,12.63742 23.08356,12.68479 0.71843,0.0474 2.15004,-1.82636 3.18137,-4.16386 z m -63.4876,-24.25 c 0,-2.66361 -0.33486,-3 -2.9863,-3 -2.0858,0 -3.09133,0.54532 -3.33458,1.80841 -0.62466,3.24362 0.64153,4.84485 3.56519,4.50856 2.32477,-0.2674 2.75569,-0.78609 2.75569,-3.31697 z m -11.43426,-15.53518 c 1.83754,-0.98343 1.93426,-2.35847 1.93426,-27.500001 l 0,-26.46482 -3.05718,0 c -5.34812,0 -12.175421,2.08848 -21.723361,6.6452 -7.40228,3.53271 -10.91877,6.01537 -17.37504,12.26686 -4.54397,4.39985 -7.90213,8.44091 -7.65595,9.21285 0.39879,1.25046 43.219641,26.703101 45.127271,26.823571 0.44866,0.0283 1.68616,-0.41431 2.75,-0.98366 z m 42.43285,-11.829111 c 12.09923,-7.01983 22.12667,-13.42838 22.28322,-14.24123 0.41013,-2.12965 -10.17825,-12.4952 -17.78181,-17.40759 -9.93058,-6.4158 -26.44598,-12.17157 -30.77968,-10.727 -0.91929,0.30643 -1.22032,6.91106 -1.22032,26.77375 0,24.056451 0.15335,26.456301 1.75,27.386261 0.9625,0.56061 2.2,1.01025 2.75,0.9992 0.55,-0.011 10.89937,-5.76357 22.99859,-12.783391 z"
 style="fill:#514E4C" />
</g>
</svg>
